<svg xmlns="http://www.w3.org/2000/svg" viewBox="0 0 32 27.9"><defs><style>.cls-1{fill:#fff;}</style></defs><title>logo</title><g id="Layer_2" data-name="Layer 2"><g id="Layer_1-2" data-name="Layer 1"><path class="cls-1" d="M16,11.3a4.8,4.8,0,1,0,4.8,4.8A4.87,4.87,0,0,0,16,11.3Z"/><path class="cls-1" d="M15.9,23.7a7.5,7.5,0,1,1,7.5-7.5,7.38,7.38,0,0,1-.64,3L31.21,26A4.26,4.26,0,0,0,32,23.6V8.7a4.27,4.27,0,0,0-4.3-4.3H24L23.2,2a3.3,3.3,0,0,0-2.9-2H11.7A3.3,3.3,0,0,0,8.8,2L8,4.3H4.3A4.33,4.33,0,0,0,0,8.6v15a4.27,4.27,0,0,0,4.3,4.3H27.7a4.22,4.22,0,0,0,.8-.08L20.95,21.7A7.76,7.76,0,0,1,15.9,23.7Z"/></g></g></svg>